<svg width="300" height="300" viewBox="0 0 300 300" fill="none" xmlns="http://www.w3.org/2000/svg">
<rect width="300" height="300" rx="72" fill="white"/>
<path d="M154.314 49.3059C158.284 48.1766 162.481 50.2717 163.679 53.98C164.877 57.688 162.62 61.5992 158.643 62.7062C154.683 63.8086 150.514 61.7128 149.321 58.0203C148.128 54.3277 150.361 50.4302 154.314 49.3059Z" fill="#D52825"/>
<path d="M177.885 95.2067C186.63 94.4643 201.482 95.8008 209.985 97.9508C232.628 103.677 247.703 112.042 260 131.364C248.133 119.02 237.754 116.83 221.402 119.696C230.816 130.597 233.314 140.949 231.373 154.822C229.993 159.964 228.473 164.434 225.682 169C226.003 125.869 175.589 109.278 141 98.4364C150.274 96.9971 168.465 95.7386 177.885 95.2067Z" fill="#0C4494"/>
<path d="M73.4657 189C86.6352 226.786 148.002 227.637 181 221.517C166.228 229.786 148.573 239.886 132.81 245.383C108.081 254.604 77.6193 252.903 56 237.063C71.5209 243.452 83.7298 243.081 97.5154 232.908C89.1107 228.996 83.7648 225.088 78.8435 217.068C74.348 209.741 71.2726 197.415 73.4657 189Z" fill="#0C4494"/>
<path d="M162 239.59C203.09 227.119 207.474 174.473 206.274 138C220.687 170.395 235.049 203.468 221.693 239.324C220.681 242.04 217.04 250.154 215.178 252.035C213.771 254.598 210.836 257.752 208.838 260C210.597 256.251 211.532 253.929 212.935 250.069C216.029 237.983 214.586 231.535 208.831 220.398C205.035 225.802 202.028 229.715 196.389 233.339C185.964 240.037 174.045 241.642 162 239.59Z" fill="#0C4494"/>
<path d="M68.444 220.143C70.8009 219.705 73.2433 220.283 75.0955 221.718C76.9481 223.153 78.0145 225.292 77.9999 227.544C77.9774 231.051 75.3664 234.074 71.7129 234.825C67.3674 235.717 63.0797 233.114 62.1705 229.032C61.2613 224.949 64.0805 220.955 68.444 220.143Z" fill="#D52825"/>
<path d="M243.227 129.136C245.539 128.638 247.921 129.529 249.449 131.463C250.978 133.396 251.414 136.07 250.589 138.449C249.764 140.828 247.806 142.539 245.475 142.92C241.985 143.49 238.71 140.955 238.099 137.211C237.488 133.466 239.765 129.881 243.227 129.136Z" fill="#D52825"/>
<path d="M198.901 240.215C201.175 239.594 203.583 240.34 205.202 242.167C206.822 243.995 207.401 246.62 206.719 249.036C206.036 251.453 204.197 253.286 201.907 253.833C198.44 254.66 194.999 252.338 194.178 248.618C193.357 244.898 195.46 241.156 198.901 240.215Z" fill="#D52825"/>
<path d="M54.4604 102.098C58.0109 101.434 61.3532 104.223 61.9184 108.322C62.4832 112.42 60.056 116.269 56.5025 116.909C52.9633 117.546 49.6444 114.76 49.0816 110.678C48.5191 106.596 50.9245 102.759 54.4604 102.098Z" fill="#D52825"/>
<path fill-rule="evenodd" clip-rule="evenodd" d="M43 100.292C43 100.289 43 100.294 43 100.292C42.9978 100.195 42.9954 100.093 42.9931 100C42.9897 100.011 42.9864 100.022 42.983 100.033C42.1314 102.856 41.4811 106.097 41 109" fill="#0C4494"/>
<path fill-rule="evenodd" clip-rule="evenodd" d="M145 194V175.091C154.974 173.189 164.975 171.609 175 170C173.58 171.191 172.084 172.451 170.535 173.755C162.53 180.495 152.613 188.27 145 194Z" fill="#0C4494"/>
<path fill-rule="evenodd" clip-rule="evenodd" d="M145 174.882V194L114 169L127.507 171.54L136.231 173.127L145 174.882Z" fill="#0C4494"/>
<path fill-rule="evenodd" clip-rule="evenodd" d="M145 153V171L114 166.154L114 153H145Z" fill="#D52825"/>
<path fill-rule="evenodd" clip-rule="evenodd" d="M145 153V171L175 166.154L175 153H145Z" fill="#D52825"/>
<path fill-rule="evenodd" clip-rule="evenodd" d="M145 145H201L198.013 150.245H191.293V151.744L191.293 152.802C191.292 153.553 191.29 154.304 191.282 156.875V157.739L191.282 158.14C191.293 165.239 191.293 165.43 192.653 168.448C192.6 168.725 192.569 168.929 192.545 169.083L192.543 169.1L192.522 169.234L192.507 169.317C192.488 169.418 192.467 169.487 192.432 169.547C192.374 169.646 192.277 169.722 192.083 169.873C191.991 169.944 191.878 170.033 191.738 170.148C191.846 170.676 192.038 171.446 192.262 172.34C193.032 175.419 194.17 179.966 193.491 181.121C191.67 182.369 188.811 182.403 187.376 180.472C186.24 178.941 187.951 173.311 188.835 171.984C188.896 170.651 188.449 170.082 188.087 169.621C187.546 168.932 187.197 168.487 189.025 166.096C189.459 165.528 189.246 160.668 189.107 157.505C189.087 157.04 189.068 156.613 189.053 156.24V154.742V150.245H145V145Z" fill="#D52825"/>
<path fill-rule="evenodd" clip-rule="evenodd" d="M90 145H145V150H92.973L91.5875 147.67L90.0195 145.033L90 145Z" fill="#D52825"/>
<path fill-rule="evenodd" clip-rule="evenodd" d="M136.166 63.3608L136.125 63.5066L136.097 63.6058L136.094 63.6148L136.092 63.6238L136.066 63.7148C135.206 66.7953 134.725 69.6287 134.409 72.9109C137.192 71.8526 142.588 69.9592 145.603 70.0119C159.803 67.2825 174.492 76.199 184 86.0389C176.034 82.8367 171.761 82.1886 163.214 82.3088L161.352 82.5347C128.625 86.6833 104.842 116.573 86 141C87.5468 136.344 89.1205 130.397 90.2699 125.577C96.4808 99.5222 106.517 71.3979 128.692 54.641L128.715 54.624C129.903 53.5819 131.069 52.6289 132.224 51.7549C140.355 45.601 147.865 43.292 157.839 40.2255L158.573 40C150.549 44.1245 144.44 48.4265 140.079 55.2226C138.63 57.4812 137.374 60.015 136.305 62.9094C136.284 62.9812 136.261 63.0523 136.239 63.1234L136.234 63.1385L136.228 63.1602L136.221 63.1865L136.198 63.258L136.185 63.2998L136.166 63.3608Z" fill="#0C4494"/>
<path d="M42.9016 108.865C45.2823 120.547 49.1529 127.095 59.3959 133.855C59.7161 134.069 60.0402 134.276 60.3682 134.478C60.5767 134.606 60.7867 134.731 60.9981 134.855C61.9605 127.13 66.6235 115.48 72.1046 109.435C77.7002 102.775 84.9719 99.3111 92.7883 96C88.5988 100.373 85.8059 104.524 83.2219 110.044C82.8763 110.782 82.5711 111.559 82.2673 112.332C81.8846 113.307 81.9412 112.907 81.0472 115.155C79.6433 120.86 78.4521 126.684 78.2858 132.573C77.5577 158.365 90.1034 184.743 102 207C97.7261 203.23 93.4302 199.711 89.189 196.236C77.8992 186.986 66.9972 178.053 57.9311 165.569C46.9398 150.435 37.5531 128.278 40.5723 109.272C41.0419 106.274 41.6768 102.926 42.5081 100.01L42.5179 99.9762L42.5246 100.274L42.5344 100.779L42.5489 101.639C42.5881 104.025 42.6376 107.004 42.9016 108.865Z" fill="#0C4494"/>
</svg>
